<svg width="49" height="48" viewBox="0 0 49 48" fill="none" xmlns="http://www.w3.org/2000/svg">
<path d="M24.7947 5.3924C35.0565 5.3924 43.3741 13.7108 43.3741 23.9718C43.3741 34.2336 35.0565 42.552 24.7947 42.552C14.5329 42.552 6.21448 34.2336 6.21448 23.9718C6.21448 13.7108 14.5329 5.3924 24.7947 5.3924Z" fill="white"/>
<path d="M6.34465 40.5028C7.19054 40.5028 7.87594 41.1882 7.87594 42.0341C7.87594 42.88 7.19054 43.5663 6.34465 43.5663C5.49875 43.5663 4.81335 42.88 4.81335 42.0341C4.81335 41.1882 5.49875 40.5028 6.34465 40.5028Z" fill="#C66ED5"/>
<path d="M42.3322 4.43372C43.342 4.43372 44.1602 5.25185 44.1602 6.26172C44.1602 7.27159 43.342 8.08973 42.3322 8.08973C41.3223 8.08973 40.5042 7.27159 40.5042 6.26172C40.5042 5.25185 41.3223 4.43372 42.3322 4.43372Z" fill="#C66ED5"/>
<path d="M30.6101 16.2728C31.7319 16.2728 32.6377 17.1785 32.6377 18.3003C32.6377 19.4221 31.7319 20.3279 30.6101 20.3279C29.4944 20.3279 28.5886 19.4221 28.5886 18.3003C28.5886 17.1785 29.4944 16.2728 30.6101 16.2728Z" fill="#404040"/>
<path d="M18.974 16.2728C20.0958 16.2728 21.0016 17.1785 21.0016 18.3003C21.0016 19.4221 20.0958 20.3279 18.974 20.3279C17.8574 20.3279 16.9517 19.4221 16.9517 18.3003C16.9517 17.1785 17.8574 16.2728 18.974 16.2728Z" fill="#404040"/>
<path d="M41.2581 42.034C41.6745 42.034 42.012 41.6964 42.012 41.2801C42.012 40.8637 41.6745 40.5261 41.2581 40.5261C40.8417 40.5261 40.5042 40.8637 40.5042 41.2801C40.5042 41.6964 40.8417 42.034 41.2581 42.034Z" fill="black"/>
<path d="M7.87588 7.76959C8.29227 7.76959 8.62981 7.43204 8.62981 7.01565C8.62981 6.59927 8.29227 6.26172 7.87588 6.26172C7.4595 6.26172 7.12195 6.59927 7.12195 7.01565C7.12195 7.43204 7.4595 7.76959 7.87588 7.76959Z" fill="black"/>
<path d="M24.7947 42.9857C19.7157 42.9857 14.9408 41.008 11.3496 37.4168C7.75839 33.8256 5.78064 29.0506 5.78064 23.9717C5.78064 18.8932 7.75839 14.1186 11.3496 10.5275C14.9409 6.93628 19.7157 4.95862 24.7947 4.95862C29.8735 4.95862 34.6483 6.93637 38.2392 10.5275C41.8302 14.1185 43.8078 18.8931 43.8078 23.9717C43.8078 29.0507 41.8302 33.8256 38.2392 37.4168C34.6483 41.0081 29.8736 42.9857 24.7947 42.9857ZM24.7947 5.8262C14.7886 5.8262 6.64823 13.9663 6.64823 23.9717C6.64823 33.9777 14.7887 42.1181 24.7947 42.1181C34.8002 42.1181 42.9403 33.9777 42.9403 23.9717C42.9403 13.9663 34.8002 5.8262 24.7947 5.8262Z" fill="black"/>
<path d="M31.9662 30.6261H17.6232C17.3837 30.6261 17.1895 30.432 17.1895 30.1923C17.1895 29.9527 17.3837 29.7585 17.6232 29.7585H31.9662C32.2058 29.7585 32.4 29.9527 32.4 30.1923C32.4 30.432 32.2058 30.6261 31.9662 30.6261Z" fill="black"/>
<path d="M30.6102 20.7616C29.2564 20.7616 28.1549 19.6574 28.1549 18.3003C28.1549 16.9431 29.2563 15.839 30.6102 15.839C31.9674 15.839 33.0715 16.9432 33.0715 18.3003C33.0715 19.6575 31.9674 20.7616 30.6102 20.7616ZM30.6102 16.7066C29.7347 16.7066 29.0225 17.4216 29.0225 18.3003C29.0225 19.1791 29.7347 19.894 30.6102 19.894C31.489 19.894 32.2039 19.1791 32.2039 18.3003C32.2039 17.4216 31.489 16.7066 30.6102 16.7066Z" fill="black"/>
<path d="M18.9741 20.7616C17.6198 20.7616 16.5179 19.6574 16.5179 18.3003C16.5179 16.9431 17.6198 15.839 18.9741 15.839C20.3313 15.839 21.4354 16.9432 21.4354 18.3003C21.4354 19.6575 20.3313 20.7616 18.9741 20.7616ZM18.9741 16.7066C18.0982 16.7066 17.3855 17.4216 17.3855 18.3003C17.3855 19.1791 18.0982 19.894 18.9741 19.894C19.8529 19.894 20.5678 19.1791 20.5678 18.3003C20.5678 17.4216 19.8529 16.7066 18.9741 16.7066Z" fill="black"/>
<path d="M42.3321 8.52351C41.085 8.52351 40.0703 7.50887 40.0703 6.26171C40.0703 5.01456 41.085 4 42.3321 4C43.5793 4 44.5938 5.01456 44.5938 6.26171C44.5938 7.50887 43.5793 8.52351 42.3321 8.52351ZM42.3321 4.8675C41.5633 4.8675 40.9379 5.49294 40.9379 6.26163C40.9379 7.03039 41.5633 7.65584 42.3321 7.65584C43.1008 7.65584 43.7262 7.03039 43.7262 6.26163C43.7263 5.49294 43.1009 4.8675 42.3321 4.8675Z" fill="black"/>
<path d="M6.3446 44C5.26107 44 4.37952 43.1181 4.37952 42.0341C4.37952 40.9505 5.26107 40.069 6.3446 40.069C7.42813 40.069 8.30968 40.9505 8.30968 42.0341C8.30968 43.1181 7.42813 44 6.3446 44ZM6.3446 40.9365C5.73946 40.9365 5.2471 41.4288 5.2471 42.034C5.2471 42.6395 5.73946 43.1323 6.3446 43.1323C6.94974 43.1323 7.4421 42.6395 7.4421 42.034C7.4421 41.4288 6.94974 40.9365 6.3446 40.9365Z" fill="black"/>
</svg>
