<svg width="40" height="39" viewBox="0 0 40 39" fill="none" xmlns="http://www.w3.org/2000/svg">
<path d="M30.2837 38.8251C29.7617 38.8255 29.2476 38.698 28.7863 38.4539L20.2159 33.9494C20.1495 33.9139 20.0754 33.8953 20.0001 33.8953C19.9247 33.8953 19.8506 33.9139 19.7842 33.9494L11.2152 38.4539C10.6842 38.7333 10.0855 38.8586 9.48705 38.8154C8.88855 38.7723 8.31407 38.5625 7.82861 38.2098C7.34314 37.8572 6.96608 37.3756 6.74008 36.8198C6.51409 36.2639 6.44817 35.6559 6.5498 35.0645L8.18605 25.5234C8.19863 25.4486 8.19267 25.3719 8.16869 25.3C8.14472 25.2281 8.10347 25.1631 8.04855 25.1109L1.1213 18.35C0.691207 17.931 0.387067 17.3999 0.243344 16.8169C0.099621 16.2338 0.122061 15.6222 0.308122 15.0513C0.494183 14.4804 0.836426 13.973 1.29607 13.5866C1.75572 13.2002 2.3144 12.9503 2.9088 12.8651L12.4829 11.475C12.5574 11.4642 12.6282 11.4353 12.689 11.391C12.7499 11.3467 12.799 11.2882 12.8322 11.2206L17.1126 2.53751C17.3777 1.99923 17.7882 1.54593 18.2977 1.22894C18.8072 0.911961 19.3952 0.743958 19.9952 0.743958C20.5953 0.743958 21.1833 0.911961 21.6928 1.22894C22.2023 1.54593 22.6128 1.99923 22.8779 2.53751L27.1611 11.2179C27.1945 11.2853 27.2437 11.3436 27.3045 11.3878C27.3653 11.4321 27.4359 11.4611 27.5103 11.4723L37.0927 12.8638C37.6868 12.9494 38.2451 13.1996 38.7044 13.586C39.1637 13.9725 39.5057 14.4797 39.6917 15.0505C39.8777 15.6212 39.9003 16.2325 39.7569 16.8154C39.6134 17.3983 39.3098 17.9294 38.8802 18.3486L31.9461 25.1054C31.8913 25.1578 31.8502 25.2227 31.8263 25.2946C31.8023 25.3665 31.7962 25.4431 31.8086 25.5179L33.4448 35.059C33.5235 35.52 33.5008 35.9926 33.3783 36.444C33.2558 36.8953 33.0364 37.3146 32.7354 37.6725C32.4344 38.0304 32.059 38.3185 31.6354 38.5166C31.2117 38.7147 30.75 38.8181 30.2823 38.8196L30.2837 38.8251ZM20.0001 31.1444C20.5215 31.1443 21.0351 31.2717 21.4961 31.5156L30.0651 36.0188C30.1409 36.0621 30.2279 36.082 30.315 36.0759C30.4022 36.0697 30.4855 36.0379 30.5546 35.9844C30.6266 35.935 30.6826 35.8655 30.7156 35.7846C30.7486 35.7037 30.7571 35.615 30.7402 35.5293L29.1026 25.9868C29.0151 25.4732 29.0534 24.9461 29.2144 24.4506C29.3753 23.9551 29.654 23.506 30.0266 23.1419L36.9607 16.3838C37.0226 16.3231 37.0663 16.2464 37.0869 16.1623C37.1075 16.0781 37.1042 15.9899 37.0773 15.9075C37.0504 15.8251 37.0011 15.7519 36.9348 15.6961C36.8685 15.6403 36.7879 15.6042 36.7022 15.5918L27.1212 14.1989C26.6054 14.1242 26.1155 13.925 25.6938 13.6186C25.2722 13.3122 24.9315 12.9078 24.7012 12.4403L20.4126 3.75851C20.3741 3.68082 20.3148 3.61541 20.2412 3.56968C20.1675 3.52395 20.0826 3.49971 19.9959 3.49971C19.9093 3.49971 19.8243 3.52395 19.7507 3.56968C19.6771 3.61541 19.6177 3.68082 19.5793 3.75851L15.2989 12.4375C15.0685 12.9052 14.7276 13.3098 14.3057 13.6162C13.8838 13.9226 13.3936 14.1217 12.8776 14.1961L3.29793 15.5918C3.212 15.6039 3.13122 15.64 3.06477 15.6958C2.99833 15.7516 2.94889 15.8249 2.9221 15.9075C2.8953 15.99 2.89222 16.0784 2.91321 16.1626C2.93419 16.2468 2.9784 16.3235 3.0408 16.3838L9.97355 23.1419C10.3461 23.506 10.6248 23.9551 10.7857 24.4506C10.9467 24.9461 10.985 25.4732 10.8976 25.9868L9.25993 35.5293C9.24507 35.615 9.25458 35.7032 9.28737 35.7838C9.32016 35.8644 9.37492 35.9341 9.44541 35.9851C9.5159 36.0361 9.5993 36.0663 9.68611 36.0723C9.77291 36.0782 9.85964 36.0597 9.93643 36.0188L18.5041 31.5143C18.9653 31.2713 19.4788 31.1444 20.0001 31.1444Z" fill="#0085FF"/>
</svg>
