<svg width="49" height="48" viewBox="0 0 49 48" fill="none" xmlns="http://www.w3.org/2000/svg">
<path d="M25.0089 5.83228C35.0278 5.83228 43.1485 13.9538 43.1485 23.9718C43.1485 33.9907 35.0278 42.1122 25.0089 42.1122C14.9901 42.1122 6.86945 33.9907 6.86945 23.9718C6.86945 13.9538 14.9901 5.83228 25.0089 5.83228Z" fill="white"/>
<path d="M6.55882 40.5028C7.40471 40.5028 8.09011 41.1882 8.09011 42.0341C8.09011 42.88 7.40471 43.5663 6.55882 43.5663C5.71292 43.5663 5.02753 42.88 5.02753 42.0341C5.02753 41.1882 5.71292 40.5028 6.55882 40.5028Z" fill="#FD4151"/>
<path d="M42.5463 4.43372C43.5562 4.43372 44.3743 5.25185 44.3743 6.26172C44.3743 7.27159 43.5562 8.08973 42.5463 8.08973C41.5365 8.08973 40.7183 7.27159 40.7183 6.26172C40.7183 5.25185 41.5365 4.43372 42.5463 4.43372Z" fill="#FD4151"/>
<path d="M41.4723 42.034C41.8886 42.034 42.2262 41.6964 42.2262 41.2801C42.2262 40.8637 41.8886 40.5261 41.4723 40.5261C41.0559 40.5261 40.7183 40.8637 40.7183 41.2801C40.7183 41.6964 41.0559 42.034 41.4723 42.034Z" fill="black"/>
<path d="M8.09011 7.76959C8.5065 7.76959 8.84405 7.43204 8.84405 7.01565C8.84405 6.59927 8.5065 6.26172 8.09011 6.26172C7.67373 6.26172 7.33618 6.59927 7.33618 7.01565C7.33618 7.43204 7.67373 7.76959 8.09011 7.76959Z" fill="black"/>
<path d="M25.0089 42.546C20.0474 42.546 15.3832 40.6139 11.8753 37.1058C8.36746 33.5977 6.43561 28.9333 6.43561 23.9717C6.43561 19.0106 8.36746 14.3465 11.8754 10.8385C15.3833 7.33044 20.0476 5.3985 25.0089 5.3985C29.9703 5.3985 34.6345 7.33053 38.1424 10.8385C41.6503 14.3465 43.5821 19.0106 43.5821 23.9717C43.5821 28.9333 41.6503 33.5977 38.1424 37.1058C34.6346 40.614 29.9703 42.546 25.0089 42.546ZM25.0089 6.26609C15.2459 6.26609 7.30319 14.2088 7.30319 23.9717C7.30319 33.7352 15.2459 41.6784 25.0089 41.6784C34.7719 41.6784 42.7146 33.7352 42.7146 23.9717C42.7146 14.2088 34.7719 6.26609 25.0089 6.26609Z" fill="black"/>
<path d="M21.9906 19.3597C21.8795 19.3597 21.7686 19.3174 21.6838 19.2326L18.9561 16.5049C18.7867 16.3355 18.7867 16.0609 18.9561 15.8915C19.1256 15.7221 19.4002 15.7222 19.5696 15.8915L22.2973 18.6192C22.4667 18.7886 22.4667 19.0632 22.2973 19.2326C22.2126 19.3174 22.1016 19.3597 21.9906 19.3597Z" fill="black"/>
<path d="M16.5361 19.3597C16.4251 19.3597 16.3141 19.3174 16.2294 19.2327C16.0599 19.0633 16.0599 18.7887 16.2293 18.6192L18.9561 15.8915C19.1255 15.7221 19.4002 15.7222 19.5696 15.8914C19.739 16.0608 19.739 16.3355 19.5697 16.5049L16.8429 19.2326C16.7582 19.3174 16.6471 19.3597 16.5361 19.3597Z" fill="black"/>
<path d="M33.8628 19.3597C33.7518 19.3597 33.6407 19.3173 33.5561 19.2326L30.8284 16.5049C30.6589 16.3355 30.6589 16.0608 30.8284 15.8915C30.9976 15.722 31.2725 15.722 31.4418 15.8915L34.1694 18.6192C34.3389 18.7885 34.3389 19.0632 34.1694 19.2326C34.0848 19.3173 33.9737 19.3597 33.8628 19.3597Z" fill="black"/>
<path d="M28.4072 19.3597C28.2962 19.3597 28.1852 19.3173 28.1005 19.2326C27.931 19.0632 27.931 18.7885 28.1005 18.6192L30.8282 15.8915C30.9974 15.722 31.2723 15.722 31.4415 15.8915C31.611 16.0608 31.611 16.3355 31.4415 16.5049L28.7139 19.2326C28.6293 19.3173 28.5183 19.3597 28.4072 19.3597Z" fill="black"/>
<path d="M24.805 32.18C24.6804 32.18 24.5559 32.1782 24.4315 32.1744C20.5427 32.0561 17.0999 30.1734 14.986 27.009C14.8529 26.8098 14.9065 26.5404 15.1057 26.4073C15.3048 26.2742 15.5742 26.3276 15.7074 26.527C17.6635 29.4552 20.8529 31.1975 24.4579 31.3072C28.3208 31.4249 31.9179 29.6746 34.3259 26.5055C34.4709 26.315 34.743 26.2777 34.9338 26.4226C35.1245 26.5675 35.1616 26.8397 35.0167 27.0305C33.7024 28.7602 32.0674 30.0909 30.1572 30.9859C28.4839 31.7698 26.6411 32.18 24.805 32.18Z" fill="black"/>
<path d="M42.5463 8.52351C41.2992 8.52351 40.2845 7.50887 40.2845 6.26171C40.2845 5.01456 41.2992 4 42.5463 4C43.7935 4 44.8081 5.01456 44.8081 6.26171C44.8081 7.50887 43.7935 8.52351 42.5463 8.52351ZM42.5463 4.8675C41.7776 4.8675 41.1521 5.49294 41.1521 6.26163C41.1521 7.03039 41.7776 7.65584 42.5463 7.65584C43.315 7.65584 43.9405 7.03039 43.9405 6.26163C43.9406 5.49294 43.3151 4.8675 42.5463 4.8675Z" fill="black"/>
<path d="M6.55883 44C5.4753 44 4.59375 43.1181 4.59375 42.0341C4.59375 40.9505 5.4753 40.069 6.55883 40.069C7.64236 40.069 8.52392 40.9505 8.52392 42.0341C8.52392 43.1181 7.64236 44 6.55883 44ZM6.55883 40.9365C5.95369 40.9365 5.46134 41.4288 5.46134 42.034C5.46134 42.6395 5.95369 43.1323 6.55883 43.1323C7.16398 43.1323 7.65633 42.6395 7.65633 42.034C7.65633 41.4288 7.16398 40.9365 6.55883 40.9365Z" fill="black"/>
</svg>
