<svg width="50" height="48" viewBox="0 0 50 48" fill="none" xmlns="http://www.w3.org/2000/svg">
<path d="M24.847 5.80743C35.0911 5.80743 43.3951 14.1123 43.3951 24.3555C43.3951 34.5995 35.0911 42.9044 24.847 42.9044C14.603 42.9044 6.29895 34.5995 6.29895 24.3555C6.29895 14.1123 14.603 5.80743 24.847 5.80743Z" fill="white"/>
<path d="M42.7213 4.44214C43.7505 4.44214 44.5844 5.27599 44.5844 6.30526C44.5844 7.33453 43.7505 8.16837 42.7213 8.16837C41.692 8.16837 40.8582 7.33453 40.8582 6.30526C40.8582 5.27599 41.692 4.44214 42.7213 4.44214Z" fill="#FD4151"/>
<path d="M6.81095 40.4355C7.67309 40.4355 8.37165 41.1341 8.37165 41.9963C8.37165 42.8584 7.67309 43.5578 6.81095 43.5578C5.9488 43.5578 5.25024 42.8584 5.25024 41.9963C5.25024 41.1341 5.9488 40.4355 6.81095 40.4355Z" fill="#FD4151"/>
<path d="M24.847 32.6206C26.2335 32.6206 27.4069 33.527 27.811 34.7791C25.9919 35.8754 23.7047 35.877 21.883 34.7791C22.2862 33.527 23.4605 32.6206 24.847 32.6206Z" fill="#FD4151"/>
<path d="M30.5955 28.6865V29.8529C30.5955 31.9432 29.4796 33.7727 27.811 34.779C27.4069 33.5269 26.2335 32.6206 24.847 32.6206C23.4605 32.6206 22.2862 33.5269 21.883 34.779C20.2144 33.7727 19.0985 31.9432 19.0985 29.8529V28.6865H30.5955Z" fill="#404040"/>
<path d="M35.7092 17.0817C36.5855 17.958 36.5855 19.3781 35.7092 20.2535L32.227 23.7365L28.7448 20.2535C27.8648 19.3735 27.8729 17.9536 28.7448 17.0817C29.6202 16.2054 31.0412 16.2054 31.9166 17.0817L32.227 17.392L32.5374 17.0817C32.976 16.644 33.5498 16.4247 34.1237 16.4247C34.6976 16.4247 35.2715 16.644 35.7092 17.0817Z" fill="#FD4151"/>
<path d="M20.9492 20.2535L17.4671 23.7365L13.9849 20.2535C13.1049 19.3735 13.1129 17.9536 13.9849 17.0817C14.8603 16.2054 16.2804 16.2054 17.1567 17.0817L17.4671 17.392L17.7774 17.0817C18.2151 16.644 18.789 16.4247 19.3629 16.4247C21.3465 16.4247 22.364 18.8402 20.9492 20.2535Z" fill="#FD4151"/>
<path d="M40.34 39.6672C40.7644 39.6672 41.1084 40.0112 41.1084 40.4357C41.1084 40.8601 40.7644 41.2041 40.34 41.2041C39.9165 41.2041 39.5716 40.8601 39.5716 40.4357C39.5716 40.0112 39.9165 39.6672 40.34 39.6672Z" fill="black"/>
<path d="M8.37163 9.70522C8.79601 9.70522 9.14004 9.36119 9.14004 8.93681C9.14004 8.51243 8.79601 8.1684 8.37163 8.1684C7.94724 8.1684 7.60321 8.51243 7.60321 8.93681C7.60321 9.36119 7.94724 9.70522 8.37163 9.70522Z" fill="black"/>
<path d="M17.1544 24.0491L13.6722 20.566C12.6229 19.5168 12.6227 17.8186 13.6722 16.7689C14.7197 15.7204 16.4165 15.7187 17.467 16.7667C17.9739 16.2609 18.6471 15.9825 19.3628 15.9825C20.8467 15.9825 22.0485 17.1834 22.0485 18.6679C22.0485 19.3851 21.7691 20.0593 21.2617 20.5662L17.7797 24.0491C17.6071 24.2217 17.327 24.2218 17.1544 24.0491ZM14.2977 17.3941C13.5941 18.0977 13.5931 19.2364 14.2975 19.9408L17.467 23.1112L20.6365 19.9408C22.3226 18.2564 19.775 15.7093 18.0901 17.3942C17.8417 17.6102 17.7461 17.8341 17.467 17.8341C17.188 17.8341 17.0923 17.6101 16.8441 17.3942C16.1405 16.6908 15.0015 16.6895 14.2977 17.3941Z" fill="black"/>
<path d="M31.9143 24.0491L28.4321 20.566C27.3808 19.5144 27.3848 17.8164 28.4321 16.769C29.4792 15.7207 31.1771 15.7184 32.227 16.7667C33.2798 15.7183 34.9744 15.7215 36.0219 16.7689C37.0711 17.8184 37.0721 19.5168 36.0217 20.5662L32.5397 24.0491C32.3671 24.2217 32.087 24.2218 31.9143 24.0491ZM29.0577 17.3941C28.3541 18.0978 28.3532 19.2363 29.0575 19.9408L32.227 23.1112L35.3965 19.9408C35.737 19.6007 35.9242 19.1487 35.9242 18.6679C35.9242 17.6733 35.119 16.8667 34.1237 16.8667C33.6432 16.8667 33.1907 17.0542 32.8497 17.3945C32.6017 17.6102 32.506 17.8341 32.227 17.8341C31.9479 17.8341 31.8523 17.6101 31.604 17.3942C30.901 16.6905 29.7612 16.6897 29.0577 17.3941Z" fill="black"/>
<path d="M21.7475 35.1998C21.5151 35.125 21.3873 34.8759 21.4621 34.6434C21.937 33.1691 23.2972 32.1785 24.8469 32.1785C26.3957 32.1785 27.7559 33.1689 28.2317 34.6431C28.3067 34.8755 28.1791 35.1247 27.9467 35.1998C27.7143 35.2746 27.4652 35.1471 27.3901 34.9148C27.0326 33.807 26.0105 33.0627 24.8469 33.0627C23.6825 33.0627 22.6604 33.8069 22.3037 34.9145C22.2283 35.1489 21.9773 35.2743 21.7475 35.1998Z" fill="black"/>
<path d="M24.847 36.0435C21.5065 36.0435 18.6564 33.3622 18.6564 29.8527V28.6865C18.6564 28.4423 18.8544 28.2444 19.0985 28.2444H30.5955C30.8397 28.2444 31.0377 28.4423 31.0377 28.6865V29.8527C31.0377 32.0422 29.9168 34.0254 28.0393 35.1575C28.0393 35.1576 28.0393 35.1576 28.0393 35.1576C27.0776 35.7373 25.9738 36.0435 24.847 36.0435ZM19.5406 29.1286V29.8527C19.5406 32.8596 21.982 35.1592 24.847 35.1592C27.7134 35.1592 30.1534 32.8579 30.1534 29.8527V29.1286H19.5406Z" fill="black"/>
<path d="M24.847 43.3465C14.3517 43.3465 5.85681 34.8526 5.85681 24.3555C5.85681 13.8843 14.3758 5.3653 24.847 5.3653C35.3182 5.3653 43.8372 13.8843 43.8372 24.3555C43.8372 34.8508 35.3441 43.3465 24.847 43.3465ZM24.847 6.24955C14.8634 6.24955 6.74106 14.3718 6.74106 24.3555C6.74106 34.3397 14.8634 42.4623 24.847 42.4623C34.8306 42.4623 42.9529 34.3397 42.9529 24.3555C42.9529 14.3718 34.8306 6.24955 24.847 6.24955Z" fill="black"/>
<path d="M42.7213 8.61049C41.4501 8.61049 40.416 7.57636 40.416 6.30524C40.416 5.03413 41.4501 4 42.7213 4C43.9924 4 45.0265 5.03413 45.0265 6.30524C45.0265 7.57636 43.9924 8.61049 42.7213 8.61049ZM42.7213 4.88425C41.9377 4.88425 41.3003 5.52171 41.3003 6.30524C41.3003 7.08878 41.9377 7.72624 42.7213 7.72624C43.5048 7.72624 44.1423 7.08878 44.1423 6.30524C44.1423 5.52171 43.5048 4.88425 42.7213 4.88425Z" fill="black"/>
<path d="M6.81094 44C5.70659 44 4.80811 43.1011 4.80811 41.9963C4.80811 40.8919 5.70659 39.9935 6.81094 39.9935C7.91528 39.9935 8.81377 40.8919 8.81377 41.9963C8.81377 43.1011 7.91528 44 6.81094 44ZM6.81094 40.8777C6.19417 40.8777 5.69236 41.3795 5.69236 41.9962C5.69236 42.6134 6.19417 43.1156 6.81094 43.1156C7.4277 43.1156 7.92951 42.6134 7.92951 41.9962C7.92951 41.3795 7.4277 40.8777 6.81094 40.8777Z" fill="black"/>
</svg>
