<svg width="44" height="44" viewBox="0 0 44 44" fill="none" xmlns="http://www.w3.org/2000/svg">
<path d="M32.2837 40.8251C31.7617 40.8255 31.2476 40.698 30.7863 40.4539L22.2159 35.9494C22.1495 35.9139 22.0754 35.8953 22.0001 35.8953C21.9247 35.8953 21.8506 35.9139 21.7842 35.9494L13.2152 40.4539C12.6842 40.7333 12.0855 40.8586 11.487 40.8154C10.8885 40.7723 10.3141 40.5625 9.82861 40.2098C9.34314 39.8572 8.96608 39.3756 8.74008 38.8198C8.51409 38.2639 8.44817 37.6559 8.5498 37.0645L10.1861 27.5234C10.1986 27.4486 10.1927 27.3719 10.1687 27.3C10.1447 27.2281 10.1035 27.1631 10.0486 27.1109L3.1213 20.35C2.69121 19.931 2.38707 19.3999 2.24334 18.8169C2.09962 18.2338 2.12206 17.6222 2.30812 17.0513C2.49418 16.4804 2.83643 15.973 3.29607 15.5866C3.75572 15.2002 4.3144 14.9503 4.9088 14.8651L14.4829 13.475C14.5574 13.4642 14.6282 13.4353 14.689 13.391C14.7499 13.3467 14.799 13.2882 14.8322 13.2206L19.1126 4.53751C19.3777 3.99923 19.7882 3.54593 20.2977 3.22894C20.8072 2.91196 21.3952 2.74396 21.9952 2.74396C22.5953 2.74396 23.1833 2.91196 23.6928 3.22894C24.2023 3.54593 24.6128 3.99923 24.8779 4.53751L29.1611 13.2179C29.1945 13.2853 29.2437 13.3436 29.3045 13.3878C29.3653 13.4321 29.4359 13.4611 29.5103 13.4723L39.0927 14.8638C39.6868 14.9494 40.2451 15.1996 40.7044 15.586C41.1637 15.9725 41.5057 16.4797 41.6917 17.0505C41.8777 17.6212 41.9003 18.2325 41.7569 18.8154C41.6134 19.3983 41.3098 19.9294 40.8802 20.3486L33.9461 27.1054C33.8913 27.1578 33.8502 27.2227 33.8263 27.2946C33.8023 27.3665 33.7962 27.4431 33.8086 27.5179L35.4448 37.059C35.5235 37.52 35.5008 37.9926 35.3783 38.444C35.2558 38.8953 35.0364 39.3146 34.7354 39.6725C34.4344 40.0304 34.059 40.3185 33.6354 40.5166C33.2117 40.7147 32.75 40.8181 32.2823 40.8196L32.2837 40.8251ZM22.0001 33.1444C22.5215 33.1443 23.0351 33.2717 23.4961 33.5156L32.0651 38.0188C32.1409 38.0621 32.2279 38.082 32.315 38.0759C32.4022 38.0697 32.4855 38.0379 32.5546 37.9844C32.6266 37.935 32.6826 37.8655 32.7156 37.7846C32.7486 37.7037 32.7571 37.615 32.7402 37.5293L31.1026 27.9868C31.0151 27.4732 31.0534 26.9461 31.2144 26.4506C31.3753 25.9551 31.654 25.506 32.0266 25.1419L38.9607 18.3838C39.0226 18.3231 39.0663 18.2464 39.0869 18.1623C39.1075 18.0781 39.1042 17.9899 39.0773 17.9075C39.0504 17.8251 39.0011 17.7519 38.9348 17.6961C38.8685 17.6403 38.7879 17.6042 38.7022 17.5918L29.1212 16.1989C28.6054 16.1242 28.1155 15.925 27.6938 15.6186C27.2722 15.3122 26.9315 14.9078 26.7012 14.4403L22.4126 5.75851C22.3741 5.68082 22.3148 5.61541 22.2412 5.56968C22.1675 5.52395 22.0826 5.49971 21.9959 5.49971C21.9093 5.49971 21.8243 5.52395 21.7507 5.56968C21.6771 5.61541 21.6177 5.68082 21.5793 5.75851L17.2989 14.4375C17.0685 14.9052 16.7276 15.3098 16.3057 15.6162C15.8838 15.9226 15.3936 16.1217 14.8776 16.1961L5.29793 17.5918C5.212 17.6039 5.13122 17.64 5.06477 17.6958C4.99833 17.7516 4.94889 17.8249 4.9221 17.9075C4.8953 17.99 4.89222 18.0784 4.91321 18.1626C4.93419 18.2468 4.9784 18.3235 5.0408 18.3838L11.9736 25.1419C12.3461 25.506 12.6248 25.9551 12.7857 26.4506C12.9467 26.9461 12.985 27.4732 12.8976 27.9868L11.2599 37.5293C11.2451 37.615 11.2546 37.7032 11.2874 37.7838C11.3202 37.8644 11.3749 37.9341 11.4454 37.9851C11.5159 38.0361 11.5993 38.0663 11.6861 38.0723C11.7729 38.0782 11.8596 38.0597 11.9364 38.0188L20.5041 33.5143C20.9653 33.2713 21.4788 33.1444 22.0001 33.1444Z" fill="black"/>
</svg>
