<svg width="49" height="48" viewBox="0 0 49 48" fill="none" xmlns="http://www.w3.org/2000/svg">
<path d="M24.3445 4.43219C35.1519 4.43219 43.9119 13.193 43.9119 23.9995C43.9119 34.8068 35.1519 43.5677 24.3445 43.5677C13.5372 43.5677 4.77722 34.8068 4.77722 23.9995C4.77722 13.193 13.5372 4.43219 24.3445 4.43219Z" fill="#FFDA2D"/>
<path d="M31.3564 28.1115V32.3669C31.3564 33.4209 30.4944 34.2846 29.4396 34.2846C28.9131 34.2846 28.4332 34.0685 28.0857 33.7209C27.7381 33.3733 27.522 32.8943 27.522 32.3669V28.1115H31.3564Z" fill="#FD4151"/>
<path d="M5.95825 40.4734C6.80122 40.4734 7.48424 41.1564 7.48424 41.9994C7.48424 42.8424 6.80122 43.5262 5.95825 43.5262C5.11527 43.5262 4.43225 42.8424 4.43225 41.9994C4.43225 41.1564 5.11527 40.4734 5.95825 40.4734Z" fill="#C66ED5"/>
<path d="M41.8213 4.52905C42.8277 4.52905 43.643 5.34436 43.643 6.35074C43.643 7.35711 42.8277 8.17242 41.8213 8.17242C40.8149 8.17242 39.9996 7.35711 39.9996 6.35074C39.9996 5.34436 40.8149 4.52905 41.8213 4.52905Z" fill="#C66ED5"/>
<path d="M40.751 41.9994C41.1659 41.9994 41.5023 41.663 41.5023 41.248C41.5023 40.8331 41.1659 40.4967 40.751 40.4967C40.336 40.4967 39.9996 40.8331 39.9996 41.248C39.9996 41.663 40.336 41.9994 40.751 41.9994Z" fill="black"/>
<path d="M7.48424 7.85336C7.89918 7.85336 8.23556 7.51698 8.23556 7.10203C8.23556 6.68709 7.89918 6.35071 7.48424 6.35071C7.06929 6.35071 6.73291 6.68709 6.73291 7.10203C6.73291 7.51698 7.06929 7.85336 7.48424 7.85336Z" fill="black"/>
<path d="M24.3445 44C19.0022 44 13.9798 41.9195 10.2024 38.142C6.42513 34.3645 4.34485 29.342 4.34485 23.9995C4.34485 18.6575 6.42513 13.6352 10.2024 9.85783C13.9798 6.08037 19.0023 4 24.3445 4C29.6868 4 34.7092 6.08037 38.4867 9.85783C42.2639 13.6352 44.3442 18.6575 44.3442 23.9995C44.3442 29.342 42.2639 34.3645 38.4867 38.142C34.7092 41.9195 29.6869 44 24.3445 44ZM24.3445 4.8645C13.7934 4.8645 5.20952 13.4484 5.20952 23.9994C5.20952 34.551 13.7935 43.1353 24.3445 43.1353C34.8956 43.1353 43.4796 34.551 43.4796 23.9994C43.4796 13.4484 34.8957 4.8645 24.3445 4.8645Z" fill="black"/>
<path d="M20.6727 17.2696C20.562 17.2696 20.4514 17.2274 20.3669 17.1429L17.2449 14.021C17.0761 13.8522 17.0761 13.5785 17.2449 13.4097C17.4138 13.2409 17.6874 13.2409 17.8563 13.4097L20.9783 16.5317C21.1472 16.7004 21.1472 16.9742 20.9783 17.1429C20.8939 17.2274 20.7833 17.2696 20.6727 17.2696Z" fill="black"/>
<path d="M14.4287 17.2696C14.318 17.2696 14.2074 17.2274 14.123 17.1429C13.9541 16.9742 13.9541 16.7005 14.123 16.5317L17.245 13.4097C17.4139 13.2409 17.6876 13.241 17.8563 13.4097C18.0252 13.5785 18.0252 13.8522 17.8563 14.021L14.7343 17.1429C14.6499 17.2274 14.5393 17.2696 14.4287 17.2696Z" fill="black"/>
<path d="M34.2605 17.2696C34.1499 17.2696 34.0391 17.2274 33.9548 17.1429L30.8328 14.021C30.664 13.8522 30.664 13.5785 30.8328 13.4097C31.0015 13.2409 31.2754 13.2409 31.4441 13.4097L34.5661 16.5317C34.735 16.7004 34.735 16.9742 34.5661 17.1429C34.4818 17.2274 34.371 17.2696 34.2605 17.2696Z" fill="black"/>
<path d="M28.0165 17.2696C27.9058 17.2696 27.7952 17.2274 27.7107 17.1429C27.5419 16.9742 27.5419 16.7004 27.7107 16.5317L30.8328 13.4097C31.0014 13.2409 31.2754 13.2409 31.444 13.4097C31.6129 13.5785 31.6129 13.8522 31.444 14.021L28.3221 17.1429C28.2377 17.2274 28.127 17.2696 28.0165 17.2696Z" fill="black"/>
<path d="M29.4395 34.717C28.8145 34.717 28.2251 34.4719 27.78 34.0268C27.3348 33.5817 27.0896 32.9922 27.0896 32.3671V28.1116C27.0896 27.8728 27.2832 27.6793 27.5219 27.6793C27.7606 27.6793 27.9542 27.8728 27.9542 28.1116V32.3671C27.9542 32.7613 28.1094 33.1336 28.3912 33.4153C28.6732 33.6973 29.0454 33.8525 29.4395 33.8525C30.2581 33.8525 30.924 33.1861 30.924 32.3671V28.1116C30.924 27.8728 31.1175 27.6793 31.3563 27.6793C31.5951 27.6793 31.7886 27.8728 31.7886 28.1116V32.3671C31.7886 33.6628 30.7349 34.717 29.4395 34.717Z" fill="black"/>
<path d="M33.4937 28.5438H13.3488C13.1101 28.5438 12.9165 28.3503 12.9165 28.1115C12.9165 27.8727 13.1101 27.6792 13.3488 27.6792H33.4937C33.7325 27.6792 33.926 27.8727 33.926 28.1115C33.926 28.3503 33.7325 28.5438 33.4937 28.5438Z" fill="black"/>
<path d="M41.8214 8.60473C40.5785 8.60473 39.5674 7.5936 39.5674 6.35075C39.5674 5.10791 40.5785 4.09686 41.8214 4.09686C43.0642 4.09686 44.0753 5.10791 44.0753 6.35075C44.0753 7.5936 43.0642 8.60473 41.8214 8.60473ZM41.8214 4.96136C41.0553 4.96136 40.432 5.58464 40.432 6.35067C40.432 7.11678 41.0553 7.74006 41.8214 7.74006C42.5874 7.74006 43.2107 7.11678 43.2107 6.35067C43.2108 5.58464 42.5875 4.96136 41.8214 4.96136Z" fill="black"/>
<path d="M5.95829 43.9585C4.87851 43.9585 4 43.0796 4 41.9993C4 40.9195 4.87851 40.041 5.95829 40.041C7.03807 40.041 7.91658 40.9195 7.91658 41.9993C7.91658 43.0796 7.03807 43.9585 5.95829 43.9585ZM5.95829 40.9056C5.35524 40.9056 4.86459 41.3963 4.86459 41.9993C4.86459 42.6028 5.35524 43.0939 5.95829 43.0939C6.56134 43.0939 7.05199 42.6028 7.05199 41.9993C7.05199 41.3962 6.56134 40.9056 5.95829 40.9056Z" fill="black"/>
</svg>
