<svg width="49" height="48" viewBox="0 0 49 48" fill="none" xmlns="http://www.w3.org/2000/svg">
<path d="M42.0848 4.44C43.1085 4.44 43.9394 5.27092 43.9394 6.2946C43.9394 7.31916 43.1085 8.15007 42.0848 8.15007C41.0603 8.15007 40.2302 7.31916 40.2302 6.2946C40.2302 5.27092 41.0603 4.44 42.0848 4.44Z" fill="white"/>
<path d="M6.33875 40.2688C7.19695 40.2688 7.89231 40.965 7.89231 41.8232C7.89231 42.6814 7.19695 43.3768 6.33875 43.3768C5.48054 43.3768 4.7843 42.6814 4.7843 41.8232C4.7843 40.965 5.48054 40.2688 6.33875 40.2688Z" fill="#FD4151"/>
<path d="M24.2924 4.96637C34.949 4.96637 43.5882 13.6065 43.5882 24.2631C43.5882 34.9207 34.949 43.5599 24.2924 43.5599C13.6348 43.5599 4.99561 34.9207 4.99561 24.2631C4.99561 13.6065 13.6348 4.96637 24.2924 4.96637Z" fill="white"/>
<path d="M39.7145 41.0337C40.1369 41.0337 40.4794 40.6912 40.4794 40.2688C40.4794 39.8464 40.1369 39.5039 39.7145 39.5039C39.292 39.5039 38.9496 39.8464 38.9496 40.2688C38.9496 40.6912 39.292 41.0337 39.7145 41.0337Z" fill="black"/>
<path d="M7.89234 8.15009C8.31484 8.15009 8.65724 8.49249 8.65724 8.9141C8.65724 9.3366 8.31484 9.679 7.89234 9.679C7.46984 9.679 7.12744 9.3366 7.12744 8.9141C7.12744 8.49249 7.46984 8.15009 7.89234 8.15009Z" fill="black"/>
<path d="M30.5299 22.8561C30.358 22.6843 30.358 22.4056 30.5299 22.2338L34.9574 17.8064C35.1291 17.6345 35.4079 17.6345 35.5797 17.8064C35.7516 17.9782 35.7516 18.2568 35.5797 18.4287L31.1522 22.8561C30.9805 23.028 30.7017 23.028 30.5299 22.8561Z" fill="black"/>
<path d="M34.9574 22.8561L30.5299 18.4287C30.358 18.2568 30.358 17.9782 30.5299 17.8064C30.7017 17.6345 30.9805 17.6345 31.1522 17.8064L35.5797 22.2338C35.7516 22.4056 35.7516 22.6843 35.5797 22.8561C35.4079 23.028 35.1291 23.028 34.9574 22.8561Z" fill="black"/>
<path d="M13.0049 22.8561C12.833 22.6843 12.833 22.4056 13.0049 22.2338L17.4315 17.8064C17.6033 17.6345 17.882 17.6346 18.0539 17.8063C18.2258 17.9781 18.2258 18.2568 18.0539 18.4287L13.6273 22.8561C13.4554 23.028 13.1768 23.028 13.0049 22.8561Z" fill="black"/>
<path d="M17.4315 22.8561L13.0049 18.4287C12.833 18.2568 12.833 17.9782 13.0049 17.8064C13.1768 17.6345 13.4554 17.6345 13.6273 17.8064L18.0539 22.2338C18.2258 22.4057 18.2258 22.6844 18.0539 22.8562C17.882 23.028 17.6034 23.028 17.4315 22.8561Z" fill="black"/>
<path d="M16.3469 31.0678C16.1448 30.9327 16.0904 30.6594 16.2255 30.4573C19.803 25.1037 27.9987 24.7196 32.3428 30.4355C32.4899 30.629 32.4522 30.9051 32.2587 31.0522C32.0652 31.1995 31.789 31.1615 31.6421 30.9681C27.7026 25.7848 20.2383 26.0364 16.9573 30.9464C16.8725 31.0733 16.55 31.2035 16.3469 31.0678Z" fill="black"/>
<path d="M42.0849 8.59019C40.8196 8.59019 39.7903 7.56043 39.7903 6.29461C39.7903 5.02931 40.8196 4 42.0849 4C43.3502 4 44.3796 5.02931 44.3796 6.29461C44.3796 7.56035 43.3502 8.59019 42.0849 8.59019ZM42.0849 4.88012C41.305 4.88012 40.6705 5.51466 40.6705 6.29452C40.6705 7.07491 41.305 7.70989 42.0849 7.70989C42.8648 7.70989 43.4994 7.07491 43.4994 6.29452C43.4994 5.51466 42.8648 4.88012 42.0849 4.88012Z" fill="black"/>
<path d="M6.33879 43.8169C5.23897 43.8169 4.34424 42.9226 4.34424 41.8233C4.34424 40.7235 5.23906 39.8287 6.33879 39.8287C7.43808 39.8287 8.33245 40.7235 8.33245 41.8233C8.33245 42.9225 7.43808 43.8169 6.33879 43.8169ZM6.33879 40.7089C5.72431 40.7089 5.22444 41.2088 5.22444 41.8232C5.22444 42.4371 5.72431 42.9366 6.33879 42.9366C6.95273 42.9366 7.45225 42.437 7.45225 41.8232C7.45225 41.2088 6.95273 40.7089 6.33879 40.7089Z" fill="black"/>
<path d="M24.2924 44C13.3842 44 4.55554 35.1729 4.55554 24.2632C4.55554 13.3556 13.383 4.52637 24.2924 4.52637C35.1996 4.52637 44.0284 13.3542 44.0284 24.2632C44.0284 35.1707 35.2019 44 24.2924 44ZM24.2924 5.40649C13.8948 5.40649 5.43575 13.8656 5.43575 24.2631C5.43575 34.6607 13.8948 43.1198 24.2924 43.1198C34.6895 43.1198 43.1482 34.6608 43.1482 24.2632C43.1482 13.8657 34.6895 5.40649 24.2924 5.40649Z" fill="black"/>
</svg>
